<svg id="Слой_1" data-name="Слой 1" xmlns="http://www.w3.org/2000/svg" viewBox="0 0 50 50"><defs><style>.cls-1{fill:#ff931e;}</style></defs><path class="cls-1" d="M50,5.94a17.58,17.58,0,0,1-5.9,1.95A12.12,12.12,0,0,0,48.57.94a17.87,17.87,0,0,1-6.5,3,9,9,0,0,0-14.74-.29,13.71,13.71,0,0,0-3,8.93,17.14,17.14,0,0,0,.26,2.89A24.53,24.53,0,0,1,12.8,11.62,31.19,31.19,0,0,1,3.46,2.3a14.66,14.66,0,0,0-1.4,6.37,14.7,14.7,0,0,0,1.24,6,12.17,12.17,0,0,0,3.33,4.49A8.79,8.79,0,0,1,2,17.58v.15a14,14,0,0,0,2.33,8,10,10,0,0,0,5.89,4.36,9,9,0,0,1-2.7.43,10.74,10.74,0,0,1-1.94-.2A12.66,12.66,0,0,0,9.2,36.58a8.87,8.87,0,0,0,6,2.52A17.83,17.83,0,0,1,2.44,44.49,18.51,18.51,0,0,1,0,44.34a25.07,25.07,0,0,0,26,3.53,25.4,25.4,0,0,0,8.19-5.7A37.17,37.17,0,0,0,40,34a41.36,41.36,0,0,0,3.67-9.71,43.76,43.76,0,0,0,1.2-10.14c0-.73,0-1.27,0-1.64A24.93,24.93,0,0,0,50,5.94Z" transform="translate(0.03 0)"/></svg>